<svg t="1712736376918" class="icon" viewBox="0 0 1024 1024" version="1.1" xmlns="http://www.w3.org/2000/svg" p-id="2677" width="200" height="200"><path d="M664.8 304a16 16 0 0 0-22.72 0l-158.4 158.4-101.76-101.76a16 16 0 0 0-22.72 0 16 16 0 0 0 0 22.56L472.48 496a14.56 14.56 0 0 0 6.4 3.84 16 16 0 0 0 16-3.84l169.76-169.6a16 16 0 0 0 0.16-22.4z" fill="#ffffff" p-id="2678"></path><path d="M439.2 678.72c-7.84-2.08-16-4.48-23.2-7.2a284.96 284.96 0 0 1-118.88-80L272 616.8l-8.48 8.48a333.28 333.28 0 0 0 157.6 98.08l12.64 3.36 27.04-27.04z m0 0c-7.84-2.08-16-4.48-23.2-7.2a284.96 284.96 0 0 1-118.88-80L272 616.8l-8.48 8.48a333.28 333.28 0 0 0 157.6 98.08l12.64 3.36 27.04-27.04zM512 64a336 336 0 0 0-285.28 513.6l6.24 9.76A365.6 365.6 0 0 0 256 616.8c2.4 2.88 4.96 5.76 7.52 8.48a333.28 333.28 0 0 0 157.6 98.08l12.64 3.36a312.64 312.64 0 0 0 44.32 7.52l14.72 1.12h40a330.4 330.4 0 0 0 45.92-5.92c4.48-0.8 8.8-1.76 13.12-2.88a334.4 334.4 0 0 0 161.6-92.96l7.84-8.16a337.92 337.92 0 0 0 22.72-28.8c2.24-3.04 4.48-6.24 6.56-9.44A336 336 0 0 0 512 64z m237.92 498.08a290.08 290.08 0 0 1-185.28 120.96 252 252 0 0 1-44.16 4.8h-28a289.28 289.28 0 0 1-53.28-8.64c-7.84-2.08-16-4.48-23.2-7.2a284.96 284.96 0 0 1-118.88-80c-2.72-2.72-5.12-5.6-7.52-8.48a272 272 0 0 1-21.76-30.08c-2.08-3.36-4-6.72-5.92-10.08A284.32 284.32 0 0 1 224 400a288 288 0 1 1 525.92 162.08z m-310.72 116.64c-7.84-2.08-16-4.48-23.2-7.2a284.96 284.96 0 0 1-118.88-80L272 616.8l-8.48 8.48a333.28 333.28 0 0 0 157.6 98.08l12.64 3.36 27.04-27.04zM416 672a284.96 284.96 0 0 1-118.88-80c-2.72-2.72-5.12-5.6-7.52-8.48L256 616.8c2.4 2.88 4.96 5.76 7.52 8.48a333.28 333.28 0 0 0 157.6 98.08l23.68-23.68z" fill="#ffffff" p-id="2679"></path><path d="M516.16 688h-23.52a289.28 289.28 0 0 1-53.28-8.64l20.96 20.96-163.04 162.24-16-81.76a48 48 0 0 0-37.76-37.76l-81.76-16 101.44-101.44 8.48-8.48 25.76-25.76c-2.72-2.72-5.12-5.6-7.52-8.48a272 272 0 0 1-21.76-30.08l-34.88 34.88L64 756.16l169.76 33.92L267.84 960l224-224 1.12-1.12 19.04-19.2 16-16z" fill="#ffffff" p-id="2680"></path><path d="M800 596.64l-9.44-9.44-25.12-25.12A286.24 286.24 0 0 1 736 599.52l34.08 34.08 93.12 93.12-81.6 16a48 48 0 0 0-37.76 37.76l-16 81.76-163.84-162.56 16-16A273.12 273.12 0 0 1 528 688h-20l-11.84 11.84L756.32 960l33.92-169.76L960 756.16z" fill="#ffffff" p-id="2681"></path></svg>
