<svg t="1707201254682" class="icon" viewBox="0 0 1024 1024" version="1.1" xmlns="http://www.w3.org/2000/svg" p-id="3518" width="200" height="200"><path d="M439.467 708.267c0-110.934 85.333-204.8 192-221.867v-4.267c4.266-8.533 12.8-46.933 12.8-59.733 0-12.8 8.533-34.133 0-38.4-4.267-4.267-8.534-12.8-25.6-4.267 4.266-25.6-4.267-162.133-8.534-174.933 0 4.267-4.266 8.533-4.266 8.533s-8.534-34.133-12.8-38.4c0 4.267-4.267 8.534-4.267 8.534s-8.533-21.334-21.333-29.867c-12.8-8.533-46.934-29.867-51.2-38.4 0 8.533 0 12.8 4.266 17.067C512 128 477.867 106.667 460.8 85.333c0-4.266-4.267 8.534-4.267 17.067C448 98.133 422.4 72.533 422.4 72.533s8.533 4.267 12.8 12.8c-12.8-12.8-42.667-38.4-42.667-38.4V64c-4.266-8.533-21.333-21.333-21.333-21.333-4.267 29.866-25.6 68.266-29.867 72.533 0-4.267-4.266-12.8-4.266-17.067-8.534 4.267-21.334 42.667-25.6 46.934 0-4.267-4.267-21.334-4.267-25.6-8.533 17.066-17.067 34.133-25.6 46.933 0-4.267-4.267-17.067 0-21.333-12.8 12.8-21.333 29.866-25.6 46.933-4.267 17.067-4.267 42.667-4.267 42.667s-4.266-17.067-4.266-34.134c-8.534 12.8-12.8 46.934-12.8 46.934-4.267 46.933 0 106.666 4.266 132.266-17.066-12.8-21.333 0-25.6 0-4.266 8.534 0 25.6 0 42.667 0 12.8 12.8 51.2 12.8 59.733 4.267 12.8 8.534 29.867 12.8 29.867 12.8 4.267 17.067 0 17.067 0 4.267 21.333 17.067 85.333 21.333 89.6 4.267 8.533 21.334 34.133 25.6 38.4 4.267 12.8-4.266 76.8-12.8 93.867-4.266-4.267-8.533-4.267-8.533-4.267S128 810.667 98.133 832c0 4.267 4.267 8.533 4.267 12.8 89.6 76.8 204.8 123.733 328.533 123.733 68.267 0 132.267-12.8 192-38.4-102.4-21.333-183.466-115.2-183.466-221.866z m473.6 200.533l-85.334-85.333c25.6-34.134 38.4-72.534 38.4-115.2 0-106.667-85.333-192-196.266-192-106.667 0-196.267 85.333-196.267 192s85.333 192 196.267 192c29.866 0 59.733-8.534 89.6-21.334l93.866 89.6c8.534 8.534 21.334 12.8 29.867 12.8 12.8 0 21.333-4.266 29.867-12.8 17.066-17.066 17.066-42.666 0-59.733z m-243.2-72.533c-72.534 0-128-55.467-128-128 0-68.267 59.733-128 128-128 72.533 0 128 55.466 128 128 0 68.266-55.467 128-128 128z m-21.334-230.4c-38.4 8.533-72.533 38.4-81.066 76.8C563.2 691.2 571.733 704 580.267 704h4.266c8.534 0 17.067-4.267 17.067-12.8 8.533-25.6 29.867-46.933 55.467-51.2 8.533-4.267 17.066-12.8 12.8-21.333 0-8.534-8.534-17.067-21.334-12.8z" p-id="3519" data-spm-anchor-id="a313x.search_index.0.i1.392d3a810Ppyih" class="selected" fill="#ff0000"></path></svg>
