<svg t="1707203929101" class="icon" viewBox="0 0 1024 1024" version="1.1" xmlns="http://www.w3.org/2000/svg" p-id="7153" width="200" height="200"><path d="M575.944152 591.210145m-356.810398 0a356.810398 356.810398 0 1 0 713.620797 0 356.810398 356.810398 0 1 0-713.620797 0Z" fill="#b5f5ec" p-id="7154"></path><path d="M511.827279 527.093272m-356.810398 0a356.810398 356.810398 0 1 0 713.620797 0 356.810398 356.810398 0 1 0-713.620797 0Z" fill="#ffadd2" p-id="7155"></path><path d="M296.394586 1023.999038a160.292183 160.292183 0 0 1-128.233746-252.941064 160.292183 160.292183 0 0 1 286.602422 68.28447 160.292183 160.292183 0 0 1-132.080758 182.733088 172.794973 172.794973 0 0 1-26.287918 1.923506z m0-294.937616a166.383286 166.383286 0 0 0-21.799737 1.602922 137.530693 137.530693 0 1 0 21.799737-1.602922z" fill="#231815" p-id="7156"></path><path d="M415.331385 964.370346A13.143959 13.143959 0 0 1 409.881451 962.126256a12.182206 12.182206 0 0 1-2.885259-16.990972l256.467492-356.169229a11.541037 11.541037 0 0 1 16.670387-2.564675 11.861622 11.861622 0 0 1 2.885259 16.670387l-256.467492 356.169229a12.182206 12.182206 0 0 1-11.220453 5.12935zM804.20022 1023.999038a176.000816 176.000816 0 0 1-25.646749-1.923506 160.292183 160.292183 0 1 1 25.646749 1.923506z m0-294.937616a133.68368 133.68368 0 1 0 21.799737 1.602922 166.383286 166.383286 0 0 0-22.440905-1.602922z" fill="#231815" p-id="7157"></path><path d="M685.263421 964.370346a12.182206 12.182206 0 0 1-9.617531-5.12935L245.101088 363.595246A155.483417 155.483417 0 0 1 281.647705 146.239046a11.541037 11.541037 0 0 1 16.670387 2.564675l352.642802 486.967651a11.861622 11.861622 0 0 1-2.564675 16.670387 12.50279 12.50279 0 0 1-16.990971-2.564675L284.532964 173.168133a132.080758 132.080758 0 0 0-20.196815 176.321401L695.201536 945.135284a12.182206 12.182206 0 0 1-2.885259 16.990972 13.143959 13.143959 0 0 1-7.052856 2.24409zM177.457786 638.977216a11.861622 11.861622 0 0 1-11.541037-9.296947L57.23865 157.138915a11.861622 11.861622 0 0 1 8.976362-14.426297 12.182206 12.182206 0 0 1 14.426296 8.976363l108.6781 472.541354a12.182206 12.182206 0 0 1-8.976362 14.426296zM243.81875 623.90975a11.861622 11.861622 0 0 1-11.541037-9.296946L123.920198 142.07145a11.861622 11.861622 0 1 1 23.402658-5.449935L255.680372 609.483454a12.182206 12.182206 0 0 1-8.976363 14.426296z" fill="#231815" p-id="7158"></path><path d="M69.100271 166.435861a11.861622 11.861622 0 0 1-11.861621-9.617531 11.541037 11.541037 0 0 1 8.976362-14.105712l314.813846-71.490313a11.861622 11.861622 0 0 1 14.426297 8.976362 11.861622 11.861622 0 0 1-8.976362 14.426297L71.98553 166.115277zM91.220592 262.931755a11.861622 11.861622 0 0 1-11.861621-9.617531 11.541037 11.541037 0 0 1 9.938115-14.105712L153.413959 224.782216a11.861622 11.861622 0 0 1 14.426297 8.976362 12.182206 12.182206 0 0 1-8.976363 14.426296L92.50293 263.25234zM117.829095 380.586217a12.182206 12.182206 0 0 1-11.861622-9.296946 11.861622 11.861622 0 0 1 9.296947-14.426297l66.040379-15.067465a11.861622 11.861622 0 0 1 14.426296 8.976362 12.182206 12.182206 0 0 1-8.976362 14.426297L121.355523 380.265633zM144.437597 498.240679a11.861622 11.861622 0 0 1-2.564675-23.723243l66.360964-15.067465a11.541037 11.541037 0 0 1 14.105712 8.976362 11.861622 11.861622 0 0 1-8.976363 14.426297l-66.360963 15.067465zM177.457786 638.977216a11.861622 11.861622 0 0 1-11.541037-9.617531 11.541037 11.541037 0 0 1 8.976363-14.105712l222.485549-50.65233a11.861622 11.861622 0 0 1 14.426296 9.296947 11.541037 11.541037 0 0 1-8.976362 14.105712l-222.485549 50.652329zM954.874872 493.431914a12.182206 12.182206 0 0 1-11.541037-8.976362L819.267686 15.440625A12.182206 12.182206 0 0 1 826.641126 0.37316a12.182206 12.182206 0 0 1 14.746881 8.655778l124.707318 469.014926a12.182206 12.182206 0 0 1-8.655778 14.746881zM888.834493 510.422885a12.182206 12.182206 0 0 1-11.861622-8.976362L753.547891 32.431597A12.182206 12.182206 0 0 1 762.524253 17.684716a11.861622 11.861622 0 0 1 14.426296 8.655778l123.424981 469.014926a11.861622 11.861622 0 0 1-8.655778 14.426296z" fill="#2c2c2c" p-id="7159"></path><path d="M488.745205 113.218857a12.50279 12.50279 0 0 1-11.861621-9.296947 11.861622 11.861622 0 0 1 8.655777-14.426296L826.641126 0.37316a12.182206 12.182206 0 0 1 14.746881 8.655778 12.182206 12.182206 0 0 1-8.655778 14.746881L491.630464 112.577688zM790.094508 137.262684a12.182206 12.182206 0 0 1-11.861621-8.655778 12.182206 12.182206 0 0 1 8.655778-14.746881L852.929044 96.54847a11.861622 11.861622 0 0 1 14.426296 8.655778 11.861622 11.861622 0 0 1-8.655777 14.426296l-64.116874 17.311556zM820.229439 253.955393a11.541037 11.541037 0 0 1-11.541037-8.976362 11.861622 11.861622 0 0 1 8.655777-14.426297l65.719795-17.311555a12.182206 12.182206 0 0 1 14.746881 8.655778 12.182206 12.182206 0 0 1-8.655778 14.74688l-66.040379 16.990972zM850.364369 370.968686a11.861622 11.861622 0 0 1-11.541037-8.976362 12.182206 12.182206 0 0 1 8.655778-14.746881l65.719795-16.990971a11.861622 11.861622 0 1 1 6.091103 23.082074l-65.719795 17.311556zM602.23207 584.798458a11.541037 11.541037 0 0 1-11.541037-8.976362 12.182206 12.182206 0 0 1 8.655778-14.746881l352.642802-91.366544a11.861622 11.861622 0 1 1 5.770518 23.082074l-352.642801 91.687129z" fill="#2c2c2c" p-id="7160"></path></svg>
