<svg t="1712737467706" class="icon" viewBox="0 0 1024 1024" version="1.1" xmlns="http://www.w3.org/2000/svg" p-id="5383" width="200" height="200"><path d="M577.855935 1024h-450.22466A102.309673 102.309673 0 0 1 25.434511 921.803236V102.196764A102.309673 102.309673 0 0 1 127.631275 0h726.287179a102.309673 102.309673 0 0 1 102.196764 102.196764v428.235631a24.698845 24.698845 0 1 1-49.39769 0V102.196764A52.855528 52.855528 0 0 0 853.918454 49.39769H127.687729a52.855528 52.855528 0 0 0-52.799073 52.799074v819.550018a52.855528 52.855528 0 0 0 52.799073 52.855528h450.224661a24.698845 24.698845 0 1 1 0 49.39769z" p-id="5384" fill="#ffffff"></path><path d="M187.642412 220.454834h607.690382v49.39769H187.642412zM187.642412 411.92028h452.708658v49.39769H187.642412zM187.642412 619.715191H538.394238v49.39769H187.642412zM796.927634 848.991041a160.72597 160.72597 0 0 1-160.598947-160.556606v-77.427351a24.698845 24.698845 0 0 1 24.698845-24.698845h57.738842a24.698845 24.698845 0 0 1 0 49.39769h-33.039997v52.728506a111.144802 111.144802 0 0 0 222.289605 0v-52.728506h-30.344296a24.698845 24.698845 0 0 1 0-49.39769h55.043141a24.698845 24.698845 0 0 1 24.698845 24.698845v77.427351a160.72597 160.72597 0 0 1-160.486038 160.556606z" p-id="5385" fill="#ffffff"></path><path d="M887.311293 994.911817a111.356507 111.356507 0 0 1-111.257712-111.229484v-49.313008a24.698845 24.698845 0 1 1 49.39769 0v49.313008a61.831794 61.831794 0 0 0 123.649475 0v-28.932933a24.698845 24.698845 0 0 1 49.39769 0v28.947047a111.356507 111.356507 0 0 1-111.187143 111.21537z" p-id="5386" fill="#ffffff"></path></svg>
