<svg t="1712846205108" class="icon" viewBox="0 0 1024 1024" version="1.1" xmlns="http://www.w3.org/2000/svg" p-id="4275" width="200" height="200"><path d="M969.048037 337.638623c0 24.86051-3.655957 49.721019-10.967872 73.484741-1.754859 5.630174-1.243025 9.359251 2.851647 14.038876 31.294994 35.828381 51.841474 79.919226 59.153389 126.934837 2.486051 13.746399 3.655957 27.639037 3.582838 41.677913a259.061133 259.061133 0 0 1-47.600564 146.311411c-25.006748 35.828381-58.787793 64.637325-98.052774 83.721421a240.48887 240.48887 0 0 1-56.301742 19.74217 10.456038 10.456038 0 0 0-8.774298 7.750629c-28.004633 75.31272-79.772988 127.446671-155.524422 156.474972-24.714271 9.286131-50.744687 14.623829-77.06758 15.720616a259.35361 259.35361 0 0 1-204.51425-80.577298 11.187229 11.187229 0 0 0-11.260349-3.655958c-61.931916 10.967872-121.012186 2.486051-175.778426-28.297109-71.510524-40.21553-114.577701-101.196898-130.444556-180.458052A239.903917 239.903917 0 0 1 65.07604 612.932206l1.096787-3.582838a7.165676 7.165676 0 0 0-1.75486-8.043106A255.185818 255.185818 0 0 1 0.731191 448.633486c-3.363481-46.796253 6.580723-93.446268 28.662706-134.831705a255.185818 255.185818 0 0 1 117.941181-114.577701 242.755564 242.755564 0 0 1 54.473764-18.79162 10.382919 10.382919 0 0 0 8.774297-7.677511c13.746399-39.776815 37.290764-75.31272 68.51264-103.53671A266.007452 266.007452 0 0 1 581.224089 30.61133c24.348676 12.649612 46.284419 29.247658 64.929801 49.282304 4.387149 4.679625 8.408702 5.630174 14.623829 4.606507a260.889112 260.889112 0 0 1 148.651223 16.23245c33.488569 13.892638 63.613657 34.658475 88.401047 61.054487 45.33387 47.381206 70.779333 110.263672 71.218048 175.851545zM581.589684 111.334867c-1.68174-1.608621-2.778528-2.924766-4.094672-3.875315A194.058213 194.058213 0 0 0 437.106253 67.46338a187.331251 187.331251 0 0 0-107.85074 46.576896c-43.359653 37.875717-66.172827 85.768758-66.684661 143.021048-0.658072 78.018128-0.073119 156.109376-0.219357 234.200624a10.456038 10.456038 0 0 0 6.142008 10.529157c26.103535 14.623829 51.914593 29.540135 77.945009 44.310202 1.535502 0.950549 3.290362 1.535502 5.776413 2.705409v-285.89586c0-13.892638 5.849532-24.129318 18.133548-31.148756L574.716485 115.35642l6.873199-4.167791v0.073119zM195.008761 251.869865c-2.193574 0.658072-3.802196 1.023668-5.337697 1.608621-22.22822 8.481821-42.628462 21.204552-59.9577 37.510122-47.015611 44.822036-68.147044 99.442038-60.469533 163.49441 7.67751 62.882465 39.923054 111.141101 95.054889 143.313525 68.147044 39.630577 136.95216 78.237486 205.4648 117.356229a9.651727 9.651727 0 0 0 11.040991-0.146238c25.737939-14.843187 51.548998-29.467016 77.360056-44.163964 1.901098-1.023668 3.582838-2.193574 5.776412-3.655958-1.901098-1.316145-3.290362-2.339813-4.752744-3.217242L281.508711 562.626234l-69.609427-39.630577a29.540135 29.540135 0 0 1-14.477591-17.182999 57.617887 57.617887 0 0 1-2.339812-16.086212 56360.895538 56360.895538 0 0 1 0-227.912377v-9.944204z m703.479301 119.184207a175.047235 175.047235 0 0 0-0.292477-67.781448c-13.892638-65.807231-51.548998-113.919629-114.285225-140.608117-60.835129-25.957297-120.792829-21.058314-178.410715 11.699064-67.123376 38.387551-134.319871 76.701984-201.589484 114.943297a8.116225 8.116225 0 0 0-4.898983 7.969987c0.219357 30.490684 0.146238 60.908248 0.146238 91.398932 0 1.462383 0.219357 2.778528 0.511834 5.11834l11.11411-6.288247 178.776311-101.85497 60.688891-34.585356a36.267096 36.267096 0 0 1 21.570148-5.11834c5.922651 0.731191 11.699063 2.778528 16.817404 5.99577 35.024071 20.034646 70.048142 40.069292 105.145331 59.9577l100.319468 57.179172c1.462383 0.731191 2.924766 1.462383 4.387149 2.047336zM124.156309 651.97783c-0.87743 10.894753-1.827979 20.107765-2.047336 29.320777-1.462383 34.512237 7.311915 68.731997 25.079867 98.272132 41.166079 68.220163 102.878638 100.17323 182.797864 97.248464 31.441233-1.023668 60.469533-11.333468 87.523618-27.054084 29.393897-16.963642 58.934031-33.634807 88.474166-50.45221 37.65636-21.497029 75.385839-42.994058 113.115318-64.344849a8.993655 8.993655 0 0 0 5.11834-9.066774c-0.146238-29.613254 0-59.226508-0.073119-88.839762 0-2.047336-0.219357-4.021553-0.365595-6.653842-2.412932 1.169906-4.094672 1.974217-5.703294 2.924766-26.615369 15.062544-53.157619 30.198207-79.626749 45.33387l-113.627153 64.783563-52.938261 30.125088a32.830496 32.830496 0 0 1-34.146641 0l-5.11834-2.778527-185.941988-106.022761c-7.019438-4.094672-14.038876-8.043106-22.520697-12.795851z m434.839559-295.25511c2.047336 1.316145 3.071004 2.193574 4.094673 2.705408l158.156712 90.155907 90.155906 51.402759c7.604391 4.094672 13.161446 11.187229 15.355021 19.449693a45.114513 45.114513 0 0 1 1.68174 12.576493v239.465202c3.655957-1.389264 6.580723-2.412932 9.505489-3.655957a185.72263 185.72263 0 0 0 60.835129-40.727364c40.361768-40.727364 60.177057-89.570953 56.5211-146.530768-4.460268-67.781448-36.852049-119.476684-95.493604-154.93947-19.303454-11.699063-39.264981-22.666935-58.934032-33.707926L653.392686 308.610322a9.213012 9.213012 0 0 0-10.529157 0.146238c-17.548595 10.23668-35.243428 20.180884-52.865143 30.198208l-31.002518 17.694833z m112.237889 118.453016v284.725953c0 14.185114-5.337698 25.006748-17.914191 32.099305l-103.097995 58.714674-103.53671 59.00715c-1.535502 0.87743-2.924766 2.047336-4.972102 3.4366 2.339813 1.901098 4.094672 3.509719 5.922651 4.898983 56.813576 40.800483 118.745493 50.817806 184.991438 27.639037a190.767851 190.767851 0 0 0 128.104743-177.240809c0.438715-78.968677 0-157.864235 0.146239-236.686674a9.139893 9.139893 0 0 0-5.19146-9.213013c-26.469131-14.843187-52.718904-29.905731-79.114915-44.968274-1.169906-0.731191-2.55917-1.096787-5.337698-2.412932zM399.157416 576.226395l112.603484 64.125491 111.945412-63.833014a12.79585 12.79585 0 0 0 0.438715-1.901098c0-40.946722 0-82.039681 0.146239-123.059522 0-3.4366-1.68174-4.825864-4.31403-6.288247-32.903616-18.645382-65.734112-37.290764-98.564608-56.082384l-9.724847-5.410817-3.948434 2.193574-104.194782 59.226508a7.969987 7.969987 0 0 0-4.533387 8.043106c0.146238 28.955182 0 57.910363 0 86.938664l0.073119 36.047739z" p-id="4276" fill="#ffffff"></path></svg>
