<svg t="1703748156227" class="icon" viewBox="0 0 1024 1024" version="1.1" xmlns="http://www.w3.org/2000/svg" p-id="4213" width="200" height="200"><path d="M731.428571 341.333333h73.142858a73.142857 73.142857 0 0 1 73.142857 73.142857v414.476191a73.142857 73.142857 0 0 1-73.142857 73.142857H219.428571a73.142857 73.142857 0 0 1-73.142857-73.142857V414.47619a73.142857 73.142857 0 0 1 73.142857-73.142857h73.142858v73.142857H219.428571v414.476191h585.142858V414.47619h-73.142858v-73.142857zM518.460952 93.671619l172.373334 172.373333-51.687619 51.736381-84.601905-84.577523v348.306285h-73.142857V234.22781l-83.626667 83.577904-51.712-51.712 172.373333-172.397714z" p-id="4214"></path></svg>
