<svg t="1702284701482" class="icon" viewBox="0 0 1024 1024" version="1.1" xmlns="http://www.w3.org/2000/svg" p-id="1620" width="200" height="200"><path d="M373.76 592.213333c-34.133333 0-61.44 27.306667-61.44 61.44s27.306667 61.44 61.44 61.44c25.6 0 47.786667-17.066667 56.32-39.253333l-44.373333-22.186667 44.373333-22.186666c-8.533333-22.186667-30.72-39.253333-56.32-39.253334zM660.48 715.093333c25.6 0 47.786667-17.066667 56.32-39.253333l-44.373333-22.186667L716.8 631.466667c-8.533333-22.186667-30.72-39.253333-56.32-39.253334-34.133333 0-61.44 27.306667-61.44 61.44s27.306667 61.44 61.44 61.44z" fill="#3B6CB9" p-id="1621"></path><path d="M938.666667 571.733333v-29.013333c3.413333-133.12-37.546667-245.76-114.346667-325.973333-37.546667-37.546667-81.92-66.56-133.12-87.04C682.666667 56.32 604.16 0 508.586667 0S336.213333 56.32 327.68 129.706667c-51.2 20.48-97.28 49.493333-133.12 87.04-78.506667 80.213333-117.76 191.146667-114.346667 325.973333v35.84c-20.48 20.48-35.84 51.2-23.893333 93.866667 8.533333 32.426667 32.426667 56.32 61.44 66.56 15.36 8.533333 32.426667 13.653333 51.2 15.36C203.093333 914.773333 337.92 1024 512 1024c174.08 0 308.906667-110.933333 344.746667-273.066667h3.413333c23.893333 0 44.373333-8.533333 61.44-22.186666 22.186667-11.946667 39.253333-32.426667 46.08-59.733334 13.653333-46.08-6.826667-78.506667-29.013333-97.28zM508.586667 32.426667c69.973333 0 129.706667 35.84 145.066666 83.626666-44.373333-11.946667-92.16-18.773333-143.36-18.773333h-1.706666c-51.2 0-100.693333 6.826667-143.36 18.773333 13.653333-47.786667 73.386667-83.626667 143.36-83.626666z m5.12 959.146666c-191.146667 0-324.266667-136.533333-324.266667-331.093333v-18.773333c0-8.533333 1.706667-30.72 1.706667-51.2 104.106667-37.546667 146.773333-141.653333 148.48-146.773334 3.413333-8.533333 0-18.773333-8.533334-22.186666-8.533333-3.413333-18.773333 0-20.48 8.533333 0 1.706667-40.96 98.986667-133.12 129.706667-3.413333-1.706667-37.546667-20.48-63.146666-13.653334v-3.413333c-1.706667-119.466667 49.493333-235.52 116.053333-305.493333 64.853333-66.56 160.426667-102.4 276.48-102.4l1.706667 18.773333 1.706666-18.773333c116.053333 0 211.626667 35.84 276.48 102.4 68.266667 69.973333 119.466667 186.026667 116.053334 305.493333v3.413333c-34.133333 0-58.026667 30.72-58.026667 32.426667-1.706667 6.826667-1.706667 18.773333-3.413333 35.84-51.2-47.786667-116.053333-61.44-180.906667-75.093333-32.426667-6.826667-68.266667-13.653333-98.986667-27.306667-114.346667-44.373333-177.493333-148.48-179.2-148.48-5.12-8.533333-15.36-10.24-22.186666-5.12-8.533333 5.12-10.24 15.36-5.12 22.186667 3.413333 5.12 69.973333 114.346667 194.56 162.133333 34.133333 13.653333 69.973333 20.48 104.106666 27.306667 68.266667 15.36 134.826667 29.013333 179.2 87.04l1.706667 5.12c0 22.186667-1.706667 42.666667-5.12 63.146666-56.32 92.16-151.893333 151.893333-269.653333 163.84-8.533333-11.946667-27.306667-18.773333-47.786667-18.773333-29.013333 0-52.906667 15.36-52.906667 35.84 0 18.773333 23.893333 35.84 52.906667 35.84 25.6 0 47.786667-13.653333 52.906667-29.013333 37.546667-5.12 73.386667-13.653333 107.52-27.306667 47.786667-18.773333 90.453333-47.786667 126.293333-85.333333 5.12-5.12 11.946667-11.946667 17.066667-18.773334-40.96 126.293333-153.6 209.92-302.08 209.92z" fill="#3B6CB9" p-id="1622"></path></svg>
