<svg t="1702375419040" class="icon" viewBox="0 0 1024 1024" version="1.1" xmlns="http://www.w3.org/2000/svg" p-id="4230" width="200" height="200"><path d="M150.186667 849.92c0-136.533333 80.213333-261.12 204.8-317.44 95.573333 61.44 216.746667 61.44 312.32 0 124.586667 56.32 204.8 180.906667 206.506666 317.44 0 145.066667-723.626667 148.48-723.626666 0z m534.186666-382.293333c-22.186667 22.186667-49.493333 39.253333-78.506666 51.2-59.733333 23.893333-126.293333 23.893333-186.026667 0-29.013333-11.946667-56.32-29.013333-78.506667-51.2-22.186667-22.186667-39.253333-47.786667-51.2-76.8-23.893333-58.026667-23.893333-122.88 0-180.906667 11.946667-29.013333 30.72-54.613333 52.906667-76.8s49.493333-39.253333 78.506667-51.2c59.733333-23.893333 126.293333-23.893333 186.026666 0 29.013333 11.946667 56.32 29.013333 78.506667 51.2s39.253333 47.786667 51.2 76.8c23.893333 58.026667 23.893333 122.88 0 180.906667-13.653333 29.013333-30.72 56.32-52.906667 76.8z" p-id="4231"></path></svg>
